<svg width="932" height="843" viewBox="0 0 932 843" fill="none" xmlns="http://www.w3.org/2000/svg">
<circle cx="465.629" cy="315" r="312.5" fill="#646464" stroke="black" stroke-width="5"/>
<mask id="mask0_1_29" style="mask-type:alpha" maskUnits="userSpaceOnUse" x="146" y="101" width="635" height="634">
<circle cx="463.629" cy="418" r="317" fill="#2C2121"/>
</mask>
<g mask="url(#mask0_1_29)">
<path fill-rule="evenodd" clip-rule="evenodd" d="M102.567 866.591C102.125 867.954 101.445 869.241 100.129 873C98.9015 876.507 97.6932 880.398 96.639 884L968.629 874.5C964.129 867.833 954.129 853.2 950.129 848C948.927 846.438 946.225 841.787 942.589 835.531C931.097 815.754 910.284 779.938 898.129 775C882.129 768.5 831.629 654 828.629 645C827.444 641.444 822.668 632.659 817.263 622.715C808.987 607.491 799.234 589.549 798.629 583.5C797.829 575.5 791.629 557.833 788.629 550C787.796 546 785.829 535.9 784.629 527.5C783.63 520.506 776.862 517.061 770.681 513.915C767.583 512.338 764.632 510.836 762.629 509C761.389 507.864 759.402 505.98 756.906 503.614C747.323 494.529 730.236 478.33 719.129 470C707.929 461.6 697.129 458.833 693.129 458.5L681.129 447L669.629 435L677.129 414.5C685.129 402.5 685.796 372.667 681.129 362V347C679.962 343.333 677.529 335 677.129 331C676.629 326 675.629 315.5 675.129 308.5C674.708 302.608 667.91 289.984 664.874 284.347C664.304 283.287 663.866 282.475 663.629 282C662.429 279.6 643.129 257.667 633.629 247C627.796 239.5 615.529 223.1 613.129 217.5C610.775 212.007 594.874 191.429 585.238 178.956C582.593 175.534 580.421 172.722 579.129 171C574.725 165.128 564.393 149.018 558.023 139.084C555.715 135.485 553.927 132.697 553.129 131.5C551.765 129.454 546.681 127.202 541.024 124.696C534.238 121.689 526.628 118.318 523.629 114.5C520.477 110.488 517.489 111.075 514.571 111.648C512.398 112.075 510.263 112.494 508.129 111C506.521 109.875 505.37 110.175 504.29 110.456C503.274 110.721 502.32 110.969 501.108 110C498.608 108 477.129 105 465.129 104.5C460.995 104.328 453.894 107.3 446.361 110.454C432.028 116.455 416.129 123.11 416.129 110C416.129 103.481 393.129 109.5 388.629 114.5C384.129 119.5 370.129 135.5 362.629 147.5C355.129 159.5 346.129 179.5 341.129 191.5C338.064 198.855 330.116 212.22 323.386 223.538C319.136 230.685 315.371 237.016 313.629 240.5C309.129 249.5 295.629 277 292.629 287C290.745 293.281 285.508 305.676 283.235 311.054C281.889 314.239 281.583 314.963 283.629 310.5C283.629 311 280.629 333 278.129 339C271.629 345.5 238.629 399.5 237.129 403.5C235.773 407.117 229.102 421.77 225.988 428.611C225.658 429.336 225.368 429.973 225.129 430.5C224.847 431.12 224.578 431.696 224.322 432.243C222.31 436.547 221.129 439.072 221.129 447.5C221.129 453.185 221.845 454.573 223.384 457.556C224.418 459.558 225.822 462.279 227.629 467.5C230.543 475.92 231.57 475.95 233.698 476.013C234.855 476.047 236.339 476.091 238.629 477.5C243.784 480.672 242.649 485.102 241.959 487.798C241.779 488.501 241.629 489.086 241.629 489.5C241.629 490.642 237.879 491.621 232.613 492.996C228.657 494.028 223.847 495.284 219.129 497C212.265 499.496 208.321 501.797 203.045 504.876C199.867 506.731 196.204 508.868 191.129 511.5C183.107 515.66 181.617 518.583 179.421 522.894C177.921 525.838 176.092 529.428 171.629 534.5C164.658 542.422 162.707 544.922 159.922 548.49C158.313 550.552 156.425 552.971 153.129 557C149.684 561.21 146.899 564.102 144.493 566.6C140.611 570.629 137.715 573.636 134.629 579.5C132.207 584.102 131.31 585.536 130.859 587.099C130.378 588.762 130.402 590.571 129.629 596.5C128.935 601.821 128.562 603.396 129.005 604.69C129.52 606.194 131.136 607.321 134.629 613.5C139.244 621.665 137.306 627.057 135.077 633.256C134.167 635.788 133.209 638.455 132.629 641.5C131.421 647.841 132.037 649.988 132.934 653.117C133.523 655.169 134.233 657.643 134.629 662C135.429 670.8 130.629 700 128.129 713.5C128.296 717.5 127.729 729.1 124.129 743.5C120.529 757.9 113.962 796.167 111.129 813.5C109.629 817.167 106.229 829.1 104.629 847.5C103.381 861.853 103.301 864.328 102.567 866.591ZM299.463 327.148C299.982 323.163 300.519 319.041 302.129 316C305.721 309.215 310.907 304.659 316.159 300.046C317.486 298.88 318.818 297.71 320.129 296.5C320.928 295.763 321.651 295.078 322.333 294.432L322.337 294.429C327.203 289.824 329.975 287.2 343.129 281.5C352.866 277.281 356.071 275.59 361.225 272.871C364.011 271.402 367.366 269.632 372.629 267C383.459 261.585 386.209 258.516 389.724 254.593C391.077 253.083 392.544 251.446 394.629 249.5C400.303 244.204 400.826 244.06 404.641 243.004C405.869 242.664 407.438 242.23 409.629 241.5C415.115 239.671 418.185 237.1 421.332 234.465C423.348 232.776 425.396 231.062 428.129 229.5C431.497 227.576 433.36 225.767 435.333 223.851C437.462 221.785 439.718 219.594 444.129 217C452.085 212.32 453.47 212.02 463.047 209.951C463.701 209.81 464.393 209.66 465.129 209.5C471.873 208.034 473.458 208.287 476.339 208.748C478.37 209.072 481.046 209.5 486.629 209.5L516.629 217.5C520.129 221.5 530.929 231.7 546.129 240.5C562.298 249.861 565.793 253.428 574.18 261.988L574.183 261.991L574.189 261.997C575.655 263.493 577.27 265.141 579.129 267C585.931 273.802 590.513 277.495 595.935 281.866L595.936 281.867C600.478 285.528 605.609 289.664 613.129 296.5C626.329 308.5 638.962 318.833 643.629 322.5L666.629 347C667.629 353.333 670.729 370.3 675.129 387.5C674.347 403.914 673.566 404.749 670.158 408.39C669.205 409.408 668.048 410.644 666.629 412.5C664.055 415.866 661.681 419.051 659.417 422.089L659.399 422.113L659.398 422.115C650.868 433.562 643.897 442.917 633.629 452C620.629 463.5 602.129 478 588.629 488.5C583.408 492.561 575.868 496.547 567.486 500.979C554.193 508.006 538.781 516.155 527.129 527.5C516.765 537.591 508.335 543.368 501.108 548.32C495.087 552.447 489.901 556 485.129 561C476.729 569.8 468.296 579.667 465.129 583.5C460.462 578.667 450.529 568.1 448.129 564.5C446.651 562.283 440.321 558.733 432.784 554.504L432.782 554.504L432.781 554.503C425.016 550.147 415.971 545.074 409.629 540C402.173 534.035 393.65 530.739 382.149 526.291C374.369 523.282 365.226 519.746 354.129 514.5C337.471 506.625 327.051 504.071 320.202 502.392C315.743 501.299 312.797 500.577 310.629 499C306.229 495.8 293.462 490.667 287.629 488.5C285.796 486 281.129 480.4 277.129 478C273.129 475.6 264.796 472 261.129 470.5L246.629 458.5C242.086 455.66 242.225 443.968 242.339 434.37C242.405 428.877 242.462 424.07 241.629 422V420C243.243 416.08 244.857 415.031 246.128 414.206C247.613 413.241 248.629 412.58 248.629 408C248.629 405.538 250.859 402.799 254.037 398.897C256.115 396.345 258.599 393.295 261.129 389.5C262.082 388.07 263.479 384.622 264.781 381.406C265.924 378.584 266.995 375.941 267.629 375C269.915 371.609 271.725 369.936 273.338 368.446C275.045 366.868 276.532 365.494 278.129 362.5C281.329 356.5 292.296 342.833 295.629 339C298.208 336.789 298.822 332.073 299.463 327.148Z" fill="#E86900"/>
<path d="M295.629 339C292.296 342.833 281.329 356.5 278.129 362.5C276.532 365.494 275.045 366.868 273.338 368.446C271.725 369.936 269.915 371.609 267.629 375C266.995 375.941 265.924 378.584 264.781 381.406C263.479 384.622 262.082 388.07 261.129 389.5C258.599 393.295 256.115 396.345 254.037 398.897C250.859 402.799 248.629 405.538 248.629 408C248.629 412.58 247.613 413.241 246.128 414.206C244.857 415.031 243.243 416.08 241.629 420V422C242.462 424.07 242.405 428.877 242.339 434.37C242.225 443.968 242.086 455.66 246.629 458.5L261.129 470.5C264.796 472 273.129 475.6 277.129 478C281.129 480.4 285.796 486 287.629 488.5C293.462 490.667 306.229 495.8 310.629 499C312.797 500.577 315.743 501.299 320.202 502.392C327.051 504.071 337.471 506.625 354.129 514.5C365.226 519.746 374.369 523.282 382.149 526.291C393.65 530.739 402.173 534.035 409.629 540C415.971 545.074 425.016 550.147 432.781 554.503L432.782 554.504L432.784 554.504C440.321 558.733 446.651 562.283 448.129 564.5C450.529 568.1 460.462 578.667 465.129 583.5C468.296 579.667 476.729 569.8 485.129 561C489.901 556 495.087 552.447 501.108 548.32C508.335 543.368 516.765 537.591 527.129 527.5C538.781 516.155 554.193 508.006 567.486 500.979C575.868 496.547 583.408 492.561 588.629 488.5C602.129 478 620.629 463.5 633.629 452C643.897 442.917 650.868 433.562 659.398 422.115L659.399 422.113L659.417 422.089C661.681 419.051 664.055 415.866 666.629 412.5C668.048 410.644 669.205 409.408 670.158 408.39C673.566 404.749 674.347 403.914 675.129 387.5C670.729 370.3 667.629 353.333 666.629 347L643.629 322.5C638.962 318.833 626.329 308.5 613.129 296.5C605.609 289.664 600.478 285.528 595.936 281.867L595.935 281.866C590.513 277.495 585.931 273.802 579.129 267C577.27 265.141 575.655 263.493 574.189 261.997L574.183 261.991L574.18 261.988C565.793 253.428 562.298 249.861 546.129 240.5C530.929 231.7 520.129 221.5 516.629 217.5L486.629 209.5C481.046 209.5 478.37 209.072 476.339 208.748C473.458 208.287 471.873 208.034 465.129 209.5C464.393 209.66 463.701 209.81 463.047 209.951C453.47 212.02 452.085 212.32 444.129 217C439.718 219.594 437.462 221.785 435.333 223.851C433.36 225.767 431.497 227.576 428.129 229.5C425.396 231.062 423.348 232.776 421.332 234.465C418.185 237.1 415.115 239.671 409.629 241.5C407.438 242.23 405.869 242.664 404.641 243.004C400.826 244.06 400.303 244.204 394.629 249.5C392.544 251.446 391.077 253.083 389.724 254.593C386.209 258.516 383.459 261.585 372.629 267C367.366 269.632 364.011 271.402 361.225 272.871C356.071 275.59 352.866 277.281 343.129 281.5C329.975 287.2 327.203 289.824 322.337 294.429L322.333 294.432C321.651 295.078 320.928 295.763 320.129 296.5C318.818 297.71 317.486 298.88 316.159 300.046C310.907 304.659 305.721 309.215 302.129 316C300.519 319.041 299.982 323.163 299.463 327.148C298.822 332.073 298.208 336.789 295.629 339Z" fill="#080707"/>
<path d="M38.1289 1096C42.5289 1086.8 49.2956 1071.5 52.1289 1065L60.6289 1040C61.6289 1037.5 63.9289 1030 65.1289 1020C66.3289 1010 70.9622 990.5 73.1289 982C74.1289 978.167 76.2289 969.1 76.6289 963.5C77.0289 957.9 80.4622 950.5 82.1289 947.5L85.1289 932.5L89.1289 902L93.6289 892C94.1905 889.753 95.2884 888.614 96.639 884M96.639 884C97.6932 880.398 98.9015 876.507 100.129 873C101.445 869.241 102.125 867.954 102.567 866.591C103.301 864.328 103.381 861.853 104.629 847.5C106.229 829.1 109.629 817.167 111.129 813.5C113.962 796.167 120.529 757.9 124.129 743.5C127.729 729.1 128.296 717.5 128.129 713.5C130.629 700 135.429 670.8 134.629 662C134.233 657.643 133.523 655.169 132.934 653.117C132.037 649.988 131.421 647.841 132.629 641.5C133.209 638.455 134.167 635.788 135.077 633.256C137.306 627.057 139.244 621.665 134.629 613.5C131.136 607.321 129.52 606.194 129.005 604.69C128.562 603.396 128.935 601.821 129.629 596.5C130.402 590.571 130.378 588.762 130.859 587.099C131.31 585.536 132.207 584.102 134.629 579.5C137.715 573.636 140.611 570.629 144.493 566.6C146.899 564.102 149.684 561.21 153.129 557C156.425 552.971 158.313 550.552 159.922 548.49C162.707 544.922 164.658 542.422 171.629 534.5C176.092 529.428 177.921 525.838 179.421 522.894C181.617 518.583 183.107 515.66 191.129 511.5C196.204 508.868 199.867 506.731 203.045 504.876C208.321 501.797 212.265 499.496 219.129 497C223.847 495.284 228.657 494.028 232.613 492.996C237.879 491.621 241.629 490.642 241.629 489.5C241.629 489.086 241.779 488.501 241.959 487.798C242.649 485.102 243.784 480.672 238.629 477.5C236.339 476.091 234.855 476.047 233.698 476.013C231.57 475.95 230.543 475.92 227.629 467.5C225.822 462.279 224.418 459.558 223.384 457.556C221.845 454.573 221.129 453.185 221.129 447.5C221.129 439.072 222.31 436.547 224.322 432.243C224.578 431.696 224.847 431.12 225.129 430.5C225.368 429.973 225.658 429.336 225.988 428.611C229.102 421.77 235.773 407.117 237.129 403.5C238.629 399.5 271.629 345.5 278.129 339C280.629 333 283.629 311 283.629 310.5C281.583 314.963 281.889 314.239 283.235 311.054C285.508 305.676 290.745 293.281 292.629 287C295.629 277 309.129 249.5 313.629 240.5C315.371 237.016 319.136 230.685 323.386 223.538C330.116 212.22 338.064 198.855 341.129 191.5C346.129 179.5 355.129 159.5 362.629 147.5C370.129 135.5 384.129 119.5 388.629 114.5C393.129 109.5 416.129 103.481 416.129 110C416.129 123.11 432.028 116.455 446.361 110.454C453.894 107.3 460.995 104.328 465.129 104.5C477.129 105 498.608 108 501.108 110C502.32 110.969 503.274 110.721 504.29 110.456C505.37 110.175 506.521 109.875 508.129 111C510.263 112.494 512.398 112.075 514.571 111.648C517.489 111.075 520.477 110.488 523.629 114.5C526.628 118.318 534.238 121.689 541.024 124.696C546.681 127.202 551.765 129.454 553.129 131.5C553.927 132.697 555.715 135.485 558.023 139.084C564.393 149.018 574.725 165.128 579.129 171C580.421 172.722 582.593 175.534 585.238 178.956C594.874 191.429 610.775 212.007 613.129 217.5C615.529 223.1 627.796 239.5 633.629 247C643.129 257.667 662.429 279.6 663.629 282C663.866 282.475 664.304 283.287 664.874 284.347C667.91 289.984 674.708 302.608 675.129 308.5C675.629 315.5 676.629 326 677.129 331C677.529 335 679.962 343.333 681.129 347V362C685.796 372.667 685.129 402.5 677.129 414.5L669.629 435L681.129 447L693.129 458.5C697.129 458.833 707.929 461.6 719.129 470C730.236 478.33 747.323 494.529 756.906 503.614C759.402 505.98 761.389 507.864 762.629 509C764.632 510.836 767.583 512.338 770.681 513.915C776.862 517.061 783.63 520.506 784.629 527.5C785.829 535.9 787.796 546 788.629 550C791.629 557.833 797.829 575.5 798.629 583.5C799.234 589.549 808.987 607.491 817.263 622.715C822.668 632.659 827.444 641.444 828.629 645C831.629 654 882.129 768.5 898.129 775C910.284 779.938 931.097 815.754 942.589 835.531C946.225 841.787 948.927 846.438 950.129 848C954.129 853.2 964.129 867.833 968.629 874.5L96.639 884ZM574.183 261.991L574.18 261.988C565.793 253.428 562.298 249.861 546.129 240.5C530.929 231.7 520.129 221.5 516.629 217.5L486.629 209.5C481.046 209.5 478.37 209.072 476.339 208.748C473.458 208.287 471.873 208.034 465.129 209.5C464.393 209.66 463.701 209.81 463.047 209.951C453.47 212.02 452.085 212.32 444.129 217C439.718 219.594 437.462 221.785 435.333 223.851C433.36 225.767 431.497 227.576 428.129 229.5C425.396 231.062 423.348 232.776 421.332 234.465C418.185 237.1 415.115 239.671 409.629 241.5C407.438 242.23 405.869 242.664 404.641 243.004C400.826 244.06 400.303 244.204 394.629 249.5C392.544 251.446 391.077 253.083 389.724 254.593C386.209 258.516 383.459 261.585 372.629 267C367.366 269.632 364.011 271.402 361.225 272.871C356.071 275.59 352.866 277.281 343.129 281.5C329.975 287.2 327.203 289.824 322.337 294.429L322.333 294.432C321.651 295.078 320.928 295.763 320.129 296.5C318.818 297.71 317.486 298.88 316.159 300.046C310.907 304.659 305.721 309.215 302.129 316C300.519 319.041 299.982 323.163 299.463 327.148C298.822 332.073 298.208 336.789 295.629 339C292.296 342.833 281.329 356.5 278.129 362.5C276.532 365.494 275.045 366.868 273.338 368.446C271.725 369.936 269.915 371.609 267.629 375C266.995 375.941 265.924 378.584 264.781 381.406C263.479 384.622 262.082 388.07 261.129 389.5C258.599 393.295 256.115 396.345 254.037 398.897C250.859 402.799 248.629 405.538 248.629 408C248.629 412.58 247.613 413.241 246.128 414.206C244.857 415.031 243.243 416.08 241.629 420V422C242.462 424.07 242.405 428.877 242.339 434.37C242.225 443.968 242.086 455.66 246.629 458.5L261.129 470.5C264.796 472 273.129 475.6 277.129 478C281.129 480.4 285.796 486 287.629 488.5C293.462 490.667 306.229 495.8 310.629 499C312.797 500.577 315.743 501.299 320.202 502.392C327.051 504.071 337.471 506.625 354.129 514.5C365.226 519.746 374.369 523.282 382.149 526.291C393.65 530.739 402.173 534.035 409.629 540C415.971 545.074 425.016 550.147 432.781 554.503L432.782 554.504L432.784 554.504C440.321 558.733 446.651 562.283 448.129 564.5C450.529 568.1 460.462 578.667 465.129 583.5C468.296 579.667 476.729 569.8 485.129 561C489.901 556 495.087 552.447 501.108 548.32C508.335 543.368 516.765 537.591 527.129 527.5C538.781 516.155 554.193 508.006 567.486 500.979C575.868 496.547 583.408 492.561 588.629 488.5C602.129 478 620.629 463.5 633.629 452C643.897 442.917 650.868 433.562 659.398 422.115L659.399 422.113M574.183 261.991L574.189 261.997M574.183 261.991C574.185 261.993 574.187 261.995 574.189 261.997M659.399 422.113L659.417 422.089M659.399 422.113C659.405 422.105 659.411 422.097 659.417 422.089M574.189 261.997C575.655 263.493 577.27 265.141 579.129 267C585.931 273.802 590.513 277.495 595.935 281.866L595.936 281.867C600.478 285.528 605.609 289.664 613.129 296.5C626.329 308.5 638.962 318.833 643.629 322.5L666.629 347C667.629 353.333 670.729 370.3 675.129 387.5C674.347 403.914 673.566 404.749 670.158 408.39C669.205 409.408 668.048 410.644 666.629 412.5C664.055 415.866 661.681 419.051 659.417 422.089" stroke="#101010" stroke-width="5"/>
<circle opacity="0.4" cx="504.5" cy="299.5" r="48.5" fill="url(#paint0_radial_1_29)"/>
<circle opacity="0.4" cx="405.5" cy="302.5" r="48.5" fill="url(#paint1_radial_1_29)"/>
<circle cx="404.5" cy="301.5" r="16.5" fill="#FFB618" stroke="black" stroke-width="4"/>
<circle cx="504.5" cy="296.5" r="16.5" fill="#FFB618" stroke="black" stroke-width="4"/>
</g>
<mask id="path-9-outside-1_1_29" maskUnits="userSpaceOnUse" x="0" y="581.75" width="932" height="262" fill="black">
<rect fill="white" y="581.75" width="932" height="262"/>
<path d="M163.276 703V671.001L174.926 669.158V623.592L163.276 621.749V589.75H229.708C237.818 589.75 245.412 590.119 252.49 590.856C259.568 591.544 265.762 593.068 271.07 595.427C276.428 597.737 280.606 601.277 283.604 606.044C286.603 610.763 288.102 617.153 288.102 625.214C288.102 631.162 287.144 636.028 285.227 639.813C283.359 643.549 280.729 646.572 277.337 648.882C273.995 651.192 270.112 653.232 265.688 655.001C269.473 661.097 273.356 666.7 277.337 671.812C281.319 676.875 284.907 681.102 288.102 684.494V703H241.209C233.64 689.679 228.135 676.187 224.694 662.522H222.113V703H163.276ZM222.113 640.771C225.898 640.771 229.191 640.501 231.993 639.96C234.844 639.371 237.056 638.166 238.629 636.348C240.202 634.48 240.988 631.653 240.988 627.869C240.988 624.084 240.202 621.282 238.629 619.463C237.056 617.596 234.844 616.367 231.993 615.777C229.191 615.138 225.898 614.818 222.113 614.818V640.771Z"/>
<path d="M356.819 704.327C344.236 704.327 333.299 702.41 324.009 698.576C314.719 694.742 307.518 688.795 302.406 680.733C297.343 672.672 294.812 662.325 294.812 649.693C294.812 637.306 297.417 627.205 302.627 619.39C307.837 611.525 315.087 605.725 324.377 601.989C333.717 598.254 344.53 596.386 356.819 596.386C369.107 596.386 379.921 598.254 389.26 601.989C398.599 605.725 405.874 611.525 411.084 619.39C416.344 627.205 418.974 637.306 418.974 649.693C418.974 662.325 416.442 672.672 411.379 680.733C406.317 688.795 399.14 694.742 389.85 698.576C380.56 702.41 369.55 704.327 356.819 704.327ZM356.819 672.181C363.7 672.181 368.395 670.116 370.901 665.987C373.408 661.858 374.662 656.427 374.662 649.693C374.662 642.959 373.384 637.626 370.828 633.693C368.321 629.761 363.651 627.795 356.819 627.795C350.134 627.795 345.514 629.712 342.958 633.546C340.451 637.38 339.197 642.639 339.197 649.324C339.197 656.157 340.377 661.686 342.736 665.914C345.145 670.092 349.839 672.181 356.819 672.181Z"/>
<path d="M482.308 704.327C464.17 704.327 449.891 699.78 439.471 690.687C429.05 681.544 423.84 667.88 423.84 649.693C423.84 637.454 426.224 627.402 430.992 619.537C435.809 611.673 442.641 605.848 451.489 602.063C460.386 598.278 470.929 596.386 483.119 596.386C491.918 596.386 499.831 597.172 506.86 598.745C513.938 600.269 520.378 602.333 526.178 604.938V637.011H505.312C503.444 634.259 501.306 631.998 498.897 630.228C496.538 628.409 493.097 627.5 488.575 627.5C481.89 627.5 476.827 629.491 473.387 633.472C469.995 637.454 468.299 642.861 468.299 649.693C468.299 657.705 469.799 663.702 472.797 667.683C475.844 671.615 481.3 673.582 489.165 673.582C491.377 673.582 493.392 673.434 495.211 673.139C497.079 672.844 498.947 672.402 500.814 671.812V663.407H485.995V645.269H529.127V694.226C522.442 697.028 515.29 699.412 507.671 701.378C500.053 703.344 491.598 704.327 482.308 704.327Z"/>
<path d="M604.037 704.327C585.801 704.327 571.645 699.83 561.568 690.834C551.492 681.79 546.454 668.076 546.454 649.693V629.933L537.606 628.237V599.188H595.189V628.237L586.342 629.933V642.246C586.342 643.278 586.342 644.311 586.342 645.343C586.391 646.375 586.416 647.358 586.416 648.292V649.84C586.416 656.476 587.669 661.736 590.176 665.619C592.732 669.502 597.352 671.443 604.037 671.443C610.771 671.443 615.416 669.502 617.972 665.619C620.577 661.686 621.88 656.378 621.88 649.693V647.997C621.88 647.112 621.855 646.178 621.806 645.195C621.806 644.163 621.806 643.131 621.806 642.099V629.933L612.958 628.237V599.188H664.127V628.237L655.206 629.933C655.157 630.67 655.132 631.408 655.132 632.145C655.132 632.833 655.132 633.521 655.132 634.209V649.693C655.132 666.995 650.881 680.438 642.377 690.023C633.873 699.559 621.093 704.327 604.037 704.327Z"/>
<path d="M673.196 703V673.582L682.044 671.886V630.081L673.196 628.385V599.188H764.327V636.938H754.226C750.933 634.48 746.902 632.514 742.134 631.039C737.366 629.564 732.132 628.827 726.43 628.827V644.827L746.853 640.477V661.49L726.43 657.066V673.36C732.181 673.36 737.44 672.648 742.208 671.222C747.025 669.797 751.031 667.806 754.226 665.25H764.327V703H673.196Z"/>
<path d="M24.6631 835V803.001L36.3125 801.158V750.062C32.4294 750.062 29.2344 751.095 26.7275 753.159C24.2207 755.174 22.1071 757.288 20.3867 759.5H8V721.75H111.812V759.5H99.4258C97.7546 757.288 95.641 755.174 93.085 753.159C90.5781 751.095 87.3831 750.062 83.5 750.062V801.158L95.1494 803.001V835H24.6631Z"/>
<path d="M122.43 835V805.582L131.277 803.886V762.081L122.43 760.385V731.188H213.561V768.938H203.459C200.166 766.48 196.136 764.514 191.368 763.039C186.6 761.564 181.365 760.827 175.663 760.827V776.827L196.086 772.477V793.49L175.663 789.066V805.36C181.414 805.36 186.674 804.648 191.441 803.222C196.258 801.797 200.264 799.806 203.459 797.25H213.561V835H122.43Z"/>
<path d="M224.03 835V805.582L232.878 803.886V761.933L224.03 760.237V731.188H284.416C290.806 731.188 297.023 731.409 303.069 731.851C309.115 732.293 314.645 733.277 319.659 734.8C324.672 736.324 328.826 738.634 332.119 741.731C335.462 744.828 337.6 749.03 338.534 754.339C339.025 757.091 339.271 760.114 339.271 763.408C339.271 768.962 338.362 773.46 336.543 776.9C334.773 780.341 332.316 783.118 329.17 785.232C326.024 787.346 322.362 789.213 318.184 790.835C320.642 795.702 323.91 800.47 327.99 805.139C332.07 809.76 335.83 814.036 339.271 817.968V835H295.18C292.182 829.396 289.257 823.547 286.406 817.452C283.604 811.308 281.368 804.746 279.697 797.766H277.264V835H224.03ZM277.264 777.785C282.916 777.785 287.291 776.974 290.388 775.352C293.484 773.73 295.033 770.093 295.033 764.44C295.033 758.787 293.46 755.125 290.314 753.454C287.217 751.783 282.867 750.947 277.264 750.947V777.785Z"/>
<path d="M348.782 835V805.582L357.63 803.886V761.933L348.782 760.237V731.188H401.942L424.282 770.854L446.401 731.188H499.561V760.237L490.713 761.933V803.886L499.561 805.582V835H446.401V784.2L424.282 821.655L401.942 784.2V835H348.782Z"/>
<path d="M509.662 835V805.582L518.51 803.886V761.933L509.662 760.237V731.188H571.743V760.237L562.896 761.933V803.886L571.743 805.582V835H509.662Z"/>
<path d="M581.771 835V805.582L590.618 803.886V761.933L581.771 760.237V731.188H635.004L670.468 787.149V762.081L661.621 760.237V731.188H705.933V760.237L697.085 761.933V803.886L705.933 805.582V835H652.699L617.235 780.513V803.886L626.156 805.508V835H581.771Z"/>
<path d="M714.78 835V800.789L723.333 799.093L743.756 731.188H800.971L821.542 799.093L830.021 800.789V835H790.575L786.889 817.526H757.913L754.226 835H714.78ZM762.41 794.227H782.391L772.364 753.454L762.41 794.227Z"/>
<path d="M839.237 835V805.582L848.085 803.886V761.933L839.237 760.237V731.188H901.318V760.237L892.397 761.933V806.688C896.722 806.688 900.434 805.704 903.53 803.738C906.676 801.772 909.257 799.609 911.272 797.25H923.585V835H839.237Z"/>
</mask>
<path d="M163.276 703V671.001L174.926 669.158V623.592L163.276 621.749V589.75H229.708C237.818 589.75 245.412 590.119 252.49 590.856C259.568 591.544 265.762 593.068 271.07 595.427C276.428 597.737 280.606 601.277 283.604 606.044C286.603 610.763 288.102 617.153 288.102 625.214C288.102 631.162 287.144 636.028 285.227 639.813C283.359 643.549 280.729 646.572 277.337 648.882C273.995 651.192 270.112 653.232 265.688 655.001C269.473 661.097 273.356 666.7 277.337 671.812C281.319 676.875 284.907 681.102 288.102 684.494V703H241.209C233.64 689.679 228.135 676.187 224.694 662.522H222.113V703H163.276ZM222.113 640.771C225.898 640.771 229.191 640.501 231.993 639.96C234.844 639.371 237.056 638.166 238.629 636.348C240.202 634.48 240.988 631.653 240.988 627.869C240.988 624.084 240.202 621.282 238.629 619.463C237.056 617.596 234.844 616.367 231.993 615.777C229.191 615.138 225.898 614.818 222.113 614.818V640.771Z" fill="black"/>
<path d="M356.819 704.327C344.236 704.327 333.299 702.41 324.009 698.576C314.719 694.742 307.518 688.795 302.406 680.733C297.343 672.672 294.812 662.325 294.812 649.693C294.812 637.306 297.417 627.205 302.627 619.39C307.837 611.525 315.087 605.725 324.377 601.989C333.717 598.254 344.53 596.386 356.819 596.386C369.107 596.386 379.921 598.254 389.26 601.989C398.599 605.725 405.874 611.525 411.084 619.39C416.344 627.205 418.974 637.306 418.974 649.693C418.974 662.325 416.442 672.672 411.379 680.733C406.317 688.795 399.14 694.742 389.85 698.576C380.56 702.41 369.55 704.327 356.819 704.327ZM356.819 672.181C363.7 672.181 368.395 670.116 370.901 665.987C373.408 661.858 374.662 656.427 374.662 649.693C374.662 642.959 373.384 637.626 370.828 633.693C368.321 629.761 363.651 627.795 356.819 627.795C350.134 627.795 345.514 629.712 342.958 633.546C340.451 637.38 339.197 642.639 339.197 649.324C339.197 656.157 340.377 661.686 342.736 665.914C345.145 670.092 349.839 672.181 356.819 672.181Z" fill="black"/>
<path d="M482.308 704.327C464.17 704.327 449.891 699.78 439.471 690.687C429.05 681.544 423.84 667.88 423.84 649.693C423.84 637.454 426.224 627.402 430.992 619.537C435.809 611.673 442.641 605.848 451.489 602.063C460.386 598.278 470.929 596.386 483.119 596.386C491.918 596.386 499.831 597.172 506.86 598.745C513.938 600.269 520.378 602.333 526.178 604.938V637.011H505.312C503.444 634.259 501.306 631.998 498.897 630.228C496.538 628.409 493.097 627.5 488.575 627.5C481.89 627.5 476.827 629.491 473.387 633.472C469.995 637.454 468.299 642.861 468.299 649.693C468.299 657.705 469.799 663.702 472.797 667.683C475.844 671.615 481.3 673.582 489.165 673.582C491.377 673.582 493.392 673.434 495.211 673.139C497.079 672.844 498.947 672.402 500.814 671.812V663.407H485.995V645.269H529.127V694.226C522.442 697.028 515.29 699.412 507.671 701.378C500.053 703.344 491.598 704.327 482.308 704.327Z" fill="black"/>
<path d="M604.037 704.327C585.801 704.327 571.645 699.83 561.568 690.834C551.492 681.79 546.454 668.076 546.454 649.693V629.933L537.606 628.237V599.188H595.189V628.237L586.342 629.933V642.246C586.342 643.278 586.342 644.311 586.342 645.343C586.391 646.375 586.416 647.358 586.416 648.292V649.84C586.416 656.476 587.669 661.736 590.176 665.619C592.732 669.502 597.352 671.443 604.037 671.443C610.771 671.443 615.416 669.502 617.972 665.619C620.577 661.686 621.88 656.378 621.88 649.693V647.997C621.88 647.112 621.855 646.178 621.806 645.195C621.806 644.163 621.806 643.131 621.806 642.099V629.933L612.958 628.237V599.188H664.127V628.237L655.206 629.933C655.157 630.67 655.132 631.408 655.132 632.145C655.132 632.833 655.132 633.521 655.132 634.209V649.693C655.132 666.995 650.881 680.438 642.377 690.023C633.873 699.559 621.093 704.327 604.037 704.327Z" fill="black"/>
<path d="M673.196 703V673.582L682.044 671.886V630.081L673.196 628.385V599.188H764.327V636.938H754.226C750.933 634.48 746.902 632.514 742.134 631.039C737.366 629.564 732.132 628.827 726.43 628.827V644.827L746.853 640.477V661.49L726.43 657.066V673.36C732.181 673.36 737.44 672.648 742.208 671.222C747.025 669.797 751.031 667.806 754.226 665.25H764.327V703H673.196Z" fill="black"/>
<path d="M24.6631 835V803.001L36.3125 801.158V750.062C32.4294 750.062 29.2344 751.095 26.7275 753.159C24.2207 755.174 22.1071 757.288 20.3867 759.5H8V721.75H111.812V759.5H99.4258C97.7546 757.288 95.641 755.174 93.085 753.159C90.5781 751.095 87.3831 750.062 83.5 750.062V801.158L95.1494 803.001V835H24.6631Z" fill="black"/>
<path d="M122.43 835V805.582L131.277 803.886V762.081L122.43 760.385V731.188H213.561V768.938H203.459C200.166 766.48 196.136 764.514 191.368 763.039C186.6 761.564 181.365 760.827 175.663 760.827V776.827L196.086 772.477V793.49L175.663 789.066V805.36C181.414 805.36 186.674 804.648 191.441 803.222C196.258 801.797 200.264 799.806 203.459 797.25H213.561V835H122.43Z" fill="black"/>
<path d="M224.03 835V805.582L232.878 803.886V761.933L224.03 760.237V731.188H284.416C290.806 731.188 297.023 731.409 303.069 731.851C309.115 732.293 314.645 733.277 319.659 734.8C324.672 736.324 328.826 738.634 332.119 741.731C335.462 744.828 337.6 749.03 338.534 754.339C339.025 757.091 339.271 760.114 339.271 763.408C339.271 768.962 338.362 773.46 336.543 776.9C334.773 780.341 332.316 783.118 329.17 785.232C326.024 787.346 322.362 789.213 318.184 790.835C320.642 795.702 323.91 800.47 327.99 805.139C332.07 809.76 335.83 814.036 339.271 817.968V835H295.18C292.182 829.396 289.257 823.547 286.406 817.452C283.604 811.308 281.368 804.746 279.697 797.766H277.264V835H224.03ZM277.264 777.785C282.916 777.785 287.291 776.974 290.388 775.352C293.484 773.73 295.033 770.093 295.033 764.44C295.033 758.787 293.46 755.125 290.314 753.454C287.217 751.783 282.867 750.947 277.264 750.947V777.785Z" fill="black"/>
<path d="M348.782 835V805.582L357.63 803.886V761.933L348.782 760.237V731.188H401.942L424.282 770.854L446.401 731.188H499.561V760.237L490.713 761.933V803.886L499.561 805.582V835H446.401V784.2L424.282 821.655L401.942 784.2V835H348.782Z" fill="black"/>
<path d="M509.662 835V805.582L518.51 803.886V761.933L509.662 760.237V731.188H571.743V760.237L562.896 761.933V803.886L571.743 805.582V835H509.662Z" fill="black"/>
<path d="M581.771 835V805.582L590.618 803.886V761.933L581.771 760.237V731.188H635.004L670.468 787.149V762.081L661.621 760.237V731.188H705.933V760.237L697.085 761.933V803.886L705.933 805.582V835H652.699L617.235 780.513V803.886L626.156 805.508V835H581.771Z" fill="black"/>
<path d="M714.78 835V800.789L723.333 799.093L743.756 731.188H800.971L821.542 799.093L830.021 800.789V835H790.575L786.889 817.526H757.913L754.226 835H714.78ZM762.41 794.227H782.391L772.364 753.454L762.41 794.227Z" fill="black"/>
<path d="M839.237 835V805.582L848.085 803.886V761.933L839.237 760.237V731.188H901.318V760.237L892.397 761.933V806.688C896.722 806.688 900.434 805.704 903.53 803.738C906.676 801.772 909.257 799.609 911.272 797.25H923.585V835H839.237Z" fill="black"/>
<path d="M163.276 703V671.001L174.926 669.158V623.592L163.276 621.749V589.75H229.708C237.818 589.75 245.412 590.119 252.49 590.856C259.568 591.544 265.762 593.068 271.07 595.427C276.428 597.737 280.606 601.277 283.604 606.044C286.603 610.763 288.102 617.153 288.102 625.214C288.102 631.162 287.144 636.028 285.227 639.813C283.359 643.549 280.729 646.572 277.337 648.882C273.995 651.192 270.112 653.232 265.688 655.001C269.473 661.097 273.356 666.7 277.337 671.812C281.319 676.875 284.907 681.102 288.102 684.494V703H241.209C233.64 689.679 228.135 676.187 224.694 662.522H222.113V703H163.276ZM222.113 640.771C225.898 640.771 229.191 640.501 231.993 639.96C234.844 639.371 237.056 638.166 238.629 636.348C240.202 634.48 240.988 631.653 240.988 627.869C240.988 624.084 240.202 621.282 238.629 619.463C237.056 617.596 234.844 616.367 231.993 615.777C229.191 615.138 225.898 614.818 222.113 614.818V640.771Z" stroke="black" stroke-width="16" mask="url(#path-9-outside-1_1_29)"/>
<path d="M356.819 704.327C344.236 704.327 333.299 702.41 324.009 698.576C314.719 694.742 307.518 688.795 302.406 680.733C297.343 672.672 294.812 662.325 294.812 649.693C294.812 637.306 297.417 627.205 302.627 619.39C307.837 611.525 315.087 605.725 324.377 601.989C333.717 598.254 344.53 596.386 356.819 596.386C369.107 596.386 379.921 598.254 389.26 601.989C398.599 605.725 405.874 611.525 411.084 619.39C416.344 627.205 418.974 637.306 418.974 649.693C418.974 662.325 416.442 672.672 411.379 680.733C406.317 688.795 399.14 694.742 389.85 698.576C380.56 702.41 369.55 704.327 356.819 704.327ZM356.819 672.181C363.7 672.181 368.395 670.116 370.901 665.987C373.408 661.858 374.662 656.427 374.662 649.693C374.662 642.959 373.384 637.626 370.828 633.693C368.321 629.761 363.651 627.795 356.819 627.795C350.134 627.795 345.514 629.712 342.958 633.546C340.451 637.38 339.197 642.639 339.197 649.324C339.197 656.157 340.377 661.686 342.736 665.914C345.145 670.092 349.839 672.181 356.819 672.181Z" stroke="black" stroke-width="16" mask="url(#path-9-outside-1_1_29)"/>
<path d="M482.308 704.327C464.17 704.327 449.891 699.78 439.471 690.687C429.05 681.544 423.84 667.88 423.84 649.693C423.84 637.454 426.224 627.402 430.992 619.537C435.809 611.673 442.641 605.848 451.489 602.063C460.386 598.278 470.929 596.386 483.119 596.386C491.918 596.386 499.831 597.172 506.86 598.745C513.938 600.269 520.378 602.333 526.178 604.938V637.011H505.312C503.444 634.259 501.306 631.998 498.897 630.228C496.538 628.409 493.097 627.5 488.575 627.5C481.89 627.5 476.827 629.491 473.387 633.472C469.995 637.454 468.299 642.861 468.299 649.693C468.299 657.705 469.799 663.702 472.797 667.683C475.844 671.615 481.3 673.582 489.165 673.582C491.377 673.582 493.392 673.434 495.211 673.139C497.079 672.844 498.947 672.402 500.814 671.812V663.407H485.995V645.269H529.127V694.226C522.442 697.028 515.29 699.412 507.671 701.378C500.053 703.344 491.598 704.327 482.308 704.327Z" stroke="black" stroke-width="16" mask="url(#path-9-outside-1_1_29)"/>
<path d="M604.037 704.327C585.801 704.327 571.645 699.83 561.568 690.834C551.492 681.79 546.454 668.076 546.454 649.693V629.933L537.606 628.237V599.188H595.189V628.237L586.342 629.933V642.246C586.342 643.278 586.342 644.311 586.342 645.343C586.391 646.375 586.416 647.358 586.416 648.292V649.84C586.416 656.476 587.669 661.736 590.176 665.619C592.732 669.502 597.352 671.443 604.037 671.443C610.771 671.443 615.416 669.502 617.972 665.619C620.577 661.686 621.88 656.378 621.88 649.693V647.997C621.88 647.112 621.855 646.178 621.806 645.195C621.806 644.163 621.806 643.131 621.806 642.099V629.933L612.958 628.237V599.188H664.127V628.237L655.206 629.933C655.157 630.67 655.132 631.408 655.132 632.145C655.132 632.833 655.132 633.521 655.132 634.209V649.693C655.132 666.995 650.881 680.438 642.377 690.023C633.873 699.559 621.093 704.327 604.037 704.327Z" stroke="black" stroke-width="16" mask="url(#path-9-outside-1_1_29)"/>
<path d="M673.196 703V673.582L682.044 671.886V630.081L673.196 628.385V599.188H764.327V636.938H754.226C750.933 634.48 746.902 632.514 742.134 631.039C737.366 629.564 732.132 628.827 726.43 628.827V644.827L746.853 640.477V661.49L726.43 657.066V673.36C732.181 673.36 737.44 672.648 742.208 671.222C747.025 669.797 751.031 667.806 754.226 665.25H764.327V703H673.196Z" stroke="black" stroke-width="16" mask="url(#path-9-outside-1_1_29)"/>
<path d="M24.6631 835V803.001L36.3125 801.158V750.062C32.4294 750.062 29.2344 751.095 26.7275 753.159C24.2207 755.174 22.1071 757.288 20.3867 759.5H8V721.75H111.812V759.5H99.4258C97.7546 757.288 95.641 755.174 93.085 753.159C90.5781 751.095 87.3831 750.062 83.5 750.062V801.158L95.1494 803.001V835H24.6631Z" stroke="black" stroke-width="16" mask="url(#path-9-outside-1_1_29)"/>
<path d="M122.43 835V805.582L131.277 803.886V762.081L122.43 760.385V731.188H213.561V768.938H203.459C200.166 766.48 196.136 764.514 191.368 763.039C186.6 761.564 181.365 760.827 175.663 760.827V776.827L196.086 772.477V793.49L175.663 789.066V805.36C181.414 805.36 186.674 804.648 191.441 803.222C196.258 801.797 200.264 799.806 203.459 797.25H213.561V835H122.43Z" stroke="black" stroke-width="16" mask="url(#path-9-outside-1_1_29)"/>
<path d="M224.03 835V805.582L232.878 803.886V761.933L224.03 760.237V731.188H284.416C290.806 731.188 297.023 731.409 303.069 731.851C309.115 732.293 314.645 733.277 319.659 734.8C324.672 736.324 328.826 738.634 332.119 741.731C335.462 744.828 337.6 749.03 338.534 754.339C339.025 757.091 339.271 760.114 339.271 763.408C339.271 768.962 338.362 773.46 336.543 776.9C334.773 780.341 332.316 783.118 329.17 785.232C326.024 787.346 322.362 789.213 318.184 790.835C320.642 795.702 323.91 800.47 327.99 805.139C332.07 809.76 335.83 814.036 339.271 817.968V835H295.18C292.182 829.396 289.257 823.547 286.406 817.452C283.604 811.308 281.368 804.746 279.697 797.766H277.264V835H224.03ZM277.264 777.785C282.916 777.785 287.291 776.974 290.388 775.352C293.484 773.73 295.033 770.093 295.033 764.44C295.033 758.787 293.46 755.125 290.314 753.454C287.217 751.783 282.867 750.947 277.264 750.947V777.785Z" stroke="black" stroke-width="16" mask="url(#path-9-outside-1_1_29)"/>
<path d="M348.782 835V805.582L357.63 803.886V761.933L348.782 760.237V731.188H401.942L424.282 770.854L446.401 731.188H499.561V760.237L490.713 761.933V803.886L499.561 805.582V835H446.401V784.2L424.282 821.655L401.942 784.2V835H348.782Z" stroke="black" stroke-width="16" mask="url(#path-9-outside-1_1_29)"/>
<path d="M509.662 835V805.582L518.51 803.886V761.933L509.662 760.237V731.188H571.743V760.237L562.896 761.933V803.886L571.743 805.582V835H509.662Z" stroke="black" stroke-width="16" mask="url(#path-9-outside-1_1_29)"/>
<path d="M581.771 835V805.582L590.618 803.886V761.933L581.771 760.237V731.188H635.004L670.468 787.149V762.081L661.621 760.237V731.188H705.933V760.237L697.085 761.933V803.886L705.933 805.582V835H652.699L617.235 780.513V803.886L626.156 805.508V835H581.771Z" stroke="black" stroke-width="16" mask="url(#path-9-outside-1_1_29)"/>
<path d="M714.78 835V800.789L723.333 799.093L743.756 731.188H800.971L821.542 799.093L830.021 800.789V835H790.575L786.889 817.526H757.913L754.226 835H714.78ZM762.41 794.227H782.391L772.364 753.454L762.41 794.227Z" stroke="black" stroke-width="16" mask="url(#path-9-outside-1_1_29)"/>
<path d="M839.237 835V805.582L848.085 803.886V761.933L839.237 760.237V731.188H901.318V760.237L892.397 761.933V806.688C896.722 806.688 900.434 805.704 903.53 803.738C906.676 801.772 909.257 799.609 911.272 797.25H923.585V835H839.237Z" stroke="black" stroke-width="16" mask="url(#path-9-outside-1_1_29)"/>
<mask id="path-10-outside-2_1_29" maskUnits="userSpaceOnUse" x="0" y="565.75" width="932" height="262" fill="black">
<rect fill="white" y="565.75" width="932" height="262"/>
<path d="M163.276 687V655.001L174.926 653.158V607.592L163.276 605.749V573.75H229.708C237.818 573.75 245.412 574.119 252.49 574.856C259.568 575.544 265.762 577.068 271.07 579.427C276.428 581.737 280.606 585.277 283.604 590.044C286.603 594.763 288.102 601.153 288.102 609.214C288.102 615.162 287.144 620.028 285.227 623.813C283.359 627.549 280.729 630.572 277.337 632.882C273.995 635.192 270.112 637.232 265.688 639.001C269.473 645.097 273.356 650.7 277.337 655.812C281.319 660.875 284.907 665.102 288.102 668.494V687H241.209C233.64 673.679 228.135 660.187 224.694 646.522H222.113V687H163.276ZM222.113 624.771C225.898 624.771 229.191 624.501 231.993 623.96C234.844 623.371 237.056 622.166 238.629 620.348C240.202 618.48 240.988 615.653 240.988 611.869C240.988 608.084 240.202 605.282 238.629 603.463C237.056 601.596 234.844 600.367 231.993 599.777C229.191 599.138 225.898 598.818 222.113 598.818V624.771Z"/>
<path d="M356.819 688.327C344.236 688.327 333.299 686.41 324.009 682.576C314.719 678.742 307.518 672.795 302.406 664.733C297.343 656.672 294.812 646.325 294.812 633.693C294.812 621.306 297.417 611.205 302.627 603.39C307.837 595.525 315.087 589.725 324.377 585.989C333.717 582.254 344.53 580.386 356.819 580.386C369.107 580.386 379.921 582.254 389.26 585.989C398.599 589.725 405.874 595.525 411.084 603.39C416.344 611.205 418.974 621.306 418.974 633.693C418.974 646.325 416.442 656.672 411.379 664.733C406.317 672.795 399.14 678.742 389.85 682.576C380.56 686.41 369.55 688.327 356.819 688.327ZM356.819 656.181C363.7 656.181 368.395 654.116 370.901 649.987C373.408 645.858 374.662 640.427 374.662 633.693C374.662 626.959 373.384 621.626 370.828 617.693C368.321 613.761 363.651 611.795 356.819 611.795C350.134 611.795 345.514 613.712 342.958 617.546C340.451 621.38 339.197 626.639 339.197 633.324C339.197 640.157 340.377 645.686 342.736 649.914C345.145 654.092 349.839 656.181 356.819 656.181Z"/>
<path d="M482.308 688.327C464.17 688.327 449.891 683.78 439.471 674.687C429.05 665.544 423.84 651.88 423.84 633.693C423.84 621.454 426.224 611.402 430.992 603.537C435.809 595.673 442.641 589.848 451.489 586.063C460.386 582.278 470.929 580.386 483.119 580.386C491.918 580.386 499.831 581.172 506.86 582.745C513.938 584.269 520.378 586.333 526.178 588.938V621.011H505.312C503.444 618.259 501.306 615.998 498.897 614.228C496.538 612.409 493.097 611.5 488.575 611.5C481.89 611.5 476.827 613.491 473.387 617.472C469.995 621.454 468.299 626.861 468.299 633.693C468.299 641.705 469.799 647.702 472.797 651.683C475.844 655.615 481.3 657.582 489.165 657.582C491.377 657.582 493.392 657.434 495.211 657.139C497.079 656.844 498.947 656.402 500.814 655.812V647.407H485.995V629.269H529.127V678.226C522.442 681.028 515.29 683.412 507.671 685.378C500.053 687.344 491.598 688.327 482.308 688.327Z"/>
<path d="M604.037 688.327C585.801 688.327 571.645 683.83 561.568 674.834C551.492 665.79 546.454 652.076 546.454 633.693V613.933L537.606 612.237V583.188H595.189V612.237L586.342 613.933V626.246C586.342 627.278 586.342 628.311 586.342 629.343C586.391 630.375 586.416 631.358 586.416 632.292V633.84C586.416 640.476 587.669 645.736 590.176 649.619C592.732 653.502 597.352 655.443 604.037 655.443C610.771 655.443 615.416 653.502 617.972 649.619C620.577 645.686 621.88 640.378 621.88 633.693V631.997C621.88 631.112 621.855 630.178 621.806 629.195C621.806 628.163 621.806 627.131 621.806 626.099V613.933L612.958 612.237V583.188H664.127V612.237L655.206 613.933C655.157 614.67 655.132 615.408 655.132 616.145C655.132 616.833 655.132 617.521 655.132 618.209V633.693C655.132 650.995 650.881 664.438 642.377 674.023C633.873 683.559 621.093 688.327 604.037 688.327Z"/>
<path d="M673.196 687V657.582L682.044 655.886V614.081L673.196 612.385V583.188H764.327V620.938H754.226C750.933 618.48 746.902 616.514 742.134 615.039C737.366 613.564 732.132 612.827 726.43 612.827V628.827L746.853 624.477V645.49L726.43 641.066V657.36C732.181 657.36 737.44 656.648 742.208 655.222C747.025 653.797 751.031 651.806 754.226 649.25H764.327V687H673.196Z"/>
<path d="M24.6631 819V787.001L36.3125 785.158V734.062C32.4294 734.062 29.2344 735.095 26.7275 737.159C24.2207 739.174 22.1071 741.288 20.3867 743.5H8V705.75H111.812V743.5H99.4258C97.7546 741.288 95.641 739.174 93.085 737.159C90.5781 735.095 87.3831 734.062 83.5 734.062V785.158L95.1494 787.001V819H24.6631Z"/>
<path d="M122.43 819V789.582L131.277 787.886V746.081L122.43 744.385V715.188H213.561V752.938H203.459C200.166 750.48 196.136 748.514 191.368 747.039C186.6 745.564 181.365 744.827 175.663 744.827V760.827L196.086 756.477V777.49L175.663 773.066V789.36C181.414 789.36 186.674 788.648 191.441 787.222C196.258 785.797 200.264 783.806 203.459 781.25H213.561V819H122.43Z"/>
<path d="M224.03 819V789.582L232.878 787.886V745.933L224.03 744.237V715.188H284.416C290.806 715.188 297.023 715.409 303.069 715.851C309.115 716.293 314.645 717.277 319.659 718.8C324.672 720.324 328.826 722.634 332.119 725.731C335.462 728.828 337.6 733.03 338.534 738.339C339.025 741.091 339.271 744.114 339.271 747.408C339.271 752.962 338.362 757.46 336.543 760.9C334.773 764.341 332.316 767.118 329.17 769.232C326.024 771.346 322.362 773.213 318.184 774.835C320.642 779.702 323.91 784.47 327.99 789.139C332.07 793.76 335.83 798.036 339.271 801.968V819H295.18C292.182 813.396 289.257 807.547 286.406 801.452C283.604 795.308 281.368 788.746 279.697 781.766H277.264V819H224.03ZM277.264 761.785C282.916 761.785 287.291 760.974 290.388 759.352C293.484 757.73 295.033 754.093 295.033 748.44C295.033 742.787 293.46 739.125 290.314 737.454C287.217 735.783 282.867 734.947 277.264 734.947V761.785Z"/>
<path d="M348.782 819V789.582L357.63 787.886V745.933L348.782 744.237V715.188H401.942L424.282 754.854L446.401 715.188H499.561V744.237L490.713 745.933V787.886L499.561 789.582V819H446.401V768.2L424.282 805.655L401.942 768.2V819H348.782Z"/>
<path d="M509.662 819V789.582L518.51 787.886V745.933L509.662 744.237V715.188H571.743V744.237L562.896 745.933V787.886L571.743 789.582V819H509.662Z"/>
<path d="M581.771 819V789.582L590.618 787.886V745.933L581.771 744.237V715.188H635.004L670.468 771.149V746.081L661.621 744.237V715.188H705.933V744.237L697.085 745.933V787.886L705.933 789.582V819H652.699L617.235 764.513V787.886L626.156 789.508V819H581.771Z"/>
<path d="M714.78 819V784.789L723.333 783.093L743.756 715.188H800.971L821.542 783.093L830.021 784.789V819H790.575L786.889 801.526H757.913L754.226 819H714.78ZM762.41 778.227H782.391L772.364 737.454L762.41 778.227Z"/>
<path d="M839.237 819V789.582L848.085 787.886V745.933L839.237 744.237V715.188H901.318V744.237L892.397 745.933V790.688C896.722 790.688 900.434 789.704 903.53 787.738C906.676 785.772 909.257 783.609 911.272 781.25H923.585V819H839.237Z"/>
</mask>
<path d="M163.276 687V655.001L174.926 653.158V607.592L163.276 605.749V573.75H229.708C237.818 573.75 245.412 574.119 252.49 574.856C259.568 575.544 265.762 577.068 271.07 579.427C276.428 581.737 280.606 585.277 283.604 590.044C286.603 594.763 288.102 601.153 288.102 609.214C288.102 615.162 287.144 620.028 285.227 623.813C283.359 627.549 280.729 630.572 277.337 632.882C273.995 635.192 270.112 637.232 265.688 639.001C269.473 645.097 273.356 650.7 277.337 655.812C281.319 660.875 284.907 665.102 288.102 668.494V687H241.209C233.64 673.679 228.135 660.187 224.694 646.522H222.113V687H163.276ZM222.113 624.771C225.898 624.771 229.191 624.501 231.993 623.96C234.844 623.371 237.056 622.166 238.629 620.348C240.202 618.48 240.988 615.653 240.988 611.869C240.988 608.084 240.202 605.282 238.629 603.463C237.056 601.596 234.844 600.367 231.993 599.777C229.191 599.138 225.898 598.818 222.113 598.818V624.771Z" fill="#FFB618"/>
<path d="M356.819 688.327C344.236 688.327 333.299 686.41 324.009 682.576C314.719 678.742 307.518 672.795 302.406 664.733C297.343 656.672 294.812 646.325 294.812 633.693C294.812 621.306 297.417 611.205 302.627 603.39C307.837 595.525 315.087 589.725 324.377 585.989C333.717 582.254 344.53 580.386 356.819 580.386C369.107 580.386 379.921 582.254 389.26 585.989C398.599 589.725 405.874 595.525 411.084 603.39C416.344 611.205 418.974 621.306 418.974 633.693C418.974 646.325 416.442 656.672 411.379 664.733C406.317 672.795 399.14 678.742 389.85 682.576C380.56 686.41 369.55 688.327 356.819 688.327ZM356.819 656.181C363.7 656.181 368.395 654.116 370.901 649.987C373.408 645.858 374.662 640.427 374.662 633.693C374.662 626.959 373.384 621.626 370.828 617.693C368.321 613.761 363.651 611.795 356.819 611.795C350.134 611.795 345.514 613.712 342.958 617.546C340.451 621.38 339.197 626.639 339.197 633.324C339.197 640.157 340.377 645.686 342.736 649.914C345.145 654.092 349.839 656.181 356.819 656.181Z" fill="#FFB618"/>
<path d="M482.308 688.327C464.17 688.327 449.891 683.78 439.471 674.687C429.05 665.544 423.84 651.88 423.84 633.693C423.84 621.454 426.224 611.402 430.992 603.537C435.809 595.673 442.641 589.848 451.489 586.063C460.386 582.278 470.929 580.386 483.119 580.386C491.918 580.386 499.831 581.172 506.86 582.745C513.938 584.269 520.378 586.333 526.178 588.938V621.011H505.312C503.444 618.259 501.306 615.998 498.897 614.228C496.538 612.409 493.097 611.5 488.575 611.5C481.89 611.5 476.827 613.491 473.387 617.472C469.995 621.454 468.299 626.861 468.299 633.693C468.299 641.705 469.799 647.702 472.797 651.683C475.844 655.615 481.3 657.582 489.165 657.582C491.377 657.582 493.392 657.434 495.211 657.139C497.079 656.844 498.947 656.402 500.814 655.812V647.407H485.995V629.269H529.127V678.226C522.442 681.028 515.29 683.412 507.671 685.378C500.053 687.344 491.598 688.327 482.308 688.327Z" fill="#FFB618"/>
<path d="M604.037 688.327C585.801 688.327 571.645 683.83 561.568 674.834C551.492 665.79 546.454 652.076 546.454 633.693V613.933L537.606 612.237V583.188H595.189V612.237L586.342 613.933V626.246C586.342 627.278 586.342 628.311 586.342 629.343C586.391 630.375 586.416 631.358 586.416 632.292V633.84C586.416 640.476 587.669 645.736 590.176 649.619C592.732 653.502 597.352 655.443 604.037 655.443C610.771 655.443 615.416 653.502 617.972 649.619C620.577 645.686 621.88 640.378 621.88 633.693V631.997C621.88 631.112 621.855 630.178 621.806 629.195C621.806 628.163 621.806 627.131 621.806 626.099V613.933L612.958 612.237V583.188H664.127V612.237L655.206 613.933C655.157 614.67 655.132 615.408 655.132 616.145C655.132 616.833 655.132 617.521 655.132 618.209V633.693C655.132 650.995 650.881 664.438 642.377 674.023C633.873 683.559 621.093 688.327 604.037 688.327Z" fill="#FFB618"/>
<path d="M673.196 687V657.582L682.044 655.886V614.081L673.196 612.385V583.188H764.327V620.938H754.226C750.933 618.48 746.902 616.514 742.134 615.039C737.366 613.564 732.132 612.827 726.43 612.827V628.827L746.853 624.477V645.49L726.43 641.066V657.36C732.181 657.36 737.44 656.648 742.208 655.222C747.025 653.797 751.031 651.806 754.226 649.25H764.327V687H673.196Z" fill="#FFB618"/>
<path d="M24.6631 819V787.001L36.3125 785.158V734.062C32.4294 734.062 29.2344 735.095 26.7275 737.159C24.2207 739.174 22.1071 741.288 20.3867 743.5H8V705.75H111.812V743.5H99.4258C97.7546 741.288 95.641 739.174 93.085 737.159C90.5781 735.095 87.3831 734.062 83.5 734.062V785.158L95.1494 787.001V819H24.6631Z" fill="#FFB618"/>
<path d="M122.43 819V789.582L131.277 787.886V746.081L122.43 744.385V715.188H213.561V752.938H203.459C200.166 750.48 196.136 748.514 191.368 747.039C186.6 745.564 181.365 744.827 175.663 744.827V760.827L196.086 756.477V777.49L175.663 773.066V789.36C181.414 789.36 186.674 788.648 191.441 787.222C196.258 785.797 200.264 783.806 203.459 781.25H213.561V819H122.43Z" fill="#FFB618"/>
<path d="M224.03 819V789.582L232.878 787.886V745.933L224.03 744.237V715.188H284.416C290.806 715.188 297.023 715.409 303.069 715.851C309.115 716.293 314.645 717.277 319.659 718.8C324.672 720.324 328.826 722.634 332.119 725.731C335.462 728.828 337.6 733.03 338.534 738.339C339.025 741.091 339.271 744.114 339.271 747.408C339.271 752.962 338.362 757.46 336.543 760.9C334.773 764.341 332.316 767.118 329.17 769.232C326.024 771.346 322.362 773.213 318.184 774.835C320.642 779.702 323.91 784.47 327.99 789.139C332.07 793.76 335.83 798.036 339.271 801.968V819H295.18C292.182 813.396 289.257 807.547 286.406 801.452C283.604 795.308 281.368 788.746 279.697 781.766H277.264V819H224.03ZM277.264 761.785C282.916 761.785 287.291 760.974 290.388 759.352C293.484 757.73 295.033 754.093 295.033 748.44C295.033 742.787 293.46 739.125 290.314 737.454C287.217 735.783 282.867 734.947 277.264 734.947V761.785Z" fill="#FFB618"/>
<path d="M348.782 819V789.582L357.63 787.886V745.933L348.782 744.237V715.188H401.942L424.282 754.854L446.401 715.188H499.561V744.237L490.713 745.933V787.886L499.561 789.582V819H446.401V768.2L424.282 805.655L401.942 768.2V819H348.782Z" fill="#FFB618"/>
<path d="M509.662 819V789.582L518.51 787.886V745.933L509.662 744.237V715.188H571.743V744.237L562.896 745.933V787.886L571.743 789.582V819H509.662Z" fill="#FFB618"/>
<path d="M581.771 819V789.582L590.618 787.886V745.933L581.771 744.237V715.188H635.004L670.468 771.149V746.081L661.621 744.237V715.188H705.933V744.237L697.085 745.933V787.886L705.933 789.582V819H652.699L617.235 764.513V787.886L626.156 789.508V819H581.771Z" fill="#FFB618"/>
<path d="M714.78 819V784.789L723.333 783.093L743.756 715.188H800.971L821.542 783.093L830.021 784.789V819H790.575L786.889 801.526H757.913L754.226 819H714.78ZM762.41 778.227H782.391L772.364 737.454L762.41 778.227Z" fill="#FFB618"/>
<path d="M839.237 819V789.582L848.085 787.886V745.933L839.237 744.237V715.188H901.318V744.237L892.397 745.933V790.688C896.722 790.688 900.434 789.704 903.53 787.738C906.676 785.772 909.257 783.609 911.272 781.25H923.585V819H839.237Z" fill="#FFB618"/>
<path d="M163.276 687V655.001L174.926 653.158V607.592L163.276 605.749V573.75H229.708C237.818 573.75 245.412 574.119 252.49 574.856C259.568 575.544 265.762 577.068 271.07 579.427C276.428 581.737 280.606 585.277 283.604 590.044C286.603 594.763 288.102 601.153 288.102 609.214C288.102 615.162 287.144 620.028 285.227 623.813C283.359 627.549 280.729 630.572 277.337 632.882C273.995 635.192 270.112 637.232 265.688 639.001C269.473 645.097 273.356 650.7 277.337 655.812C281.319 660.875 284.907 665.102 288.102 668.494V687H241.209C233.64 673.679 228.135 660.187 224.694 646.522H222.113V687H163.276ZM222.113 624.771C225.898 624.771 229.191 624.501 231.993 623.96C234.844 623.371 237.056 622.166 238.629 620.348C240.202 618.48 240.988 615.653 240.988 611.869C240.988 608.084 240.202 605.282 238.629 603.463C237.056 601.596 234.844 600.367 231.993 599.777C229.191 599.138 225.898 598.818 222.113 598.818V624.771Z" stroke="black" stroke-width="16" mask="url(#path-10-outside-2_1_29)"/>
<path d="M356.819 688.327C344.236 688.327 333.299 686.41 324.009 682.576C314.719 678.742 307.518 672.795 302.406 664.733C297.343 656.672 294.812 646.325 294.812 633.693C294.812 621.306 297.417 611.205 302.627 603.39C307.837 595.525 315.087 589.725 324.377 585.989C333.717 582.254 344.53 580.386 356.819 580.386C369.107 580.386 379.921 582.254 389.26 585.989C398.599 589.725 405.874 595.525 411.084 603.39C416.344 611.205 418.974 621.306 418.974 633.693C418.974 646.325 416.442 656.672 411.379 664.733C406.317 672.795 399.14 678.742 389.85 682.576C380.56 686.41 369.55 688.327 356.819 688.327ZM356.819 656.181C363.7 656.181 368.395 654.116 370.901 649.987C373.408 645.858 374.662 640.427 374.662 633.693C374.662 626.959 373.384 621.626 370.828 617.693C368.321 613.761 363.651 611.795 356.819 611.795C350.134 611.795 345.514 613.712 342.958 617.546C340.451 621.38 339.197 626.639 339.197 633.324C339.197 640.157 340.377 645.686 342.736 649.914C345.145 654.092 349.839 656.181 356.819 656.181Z" stroke="black" stroke-width="16" mask="url(#path-10-outside-2_1_29)"/>
<path d="M482.308 688.327C464.17 688.327 449.891 683.78 439.471 674.687C429.05 665.544 423.84 651.88 423.84 633.693C423.84 621.454 426.224 611.402 430.992 603.537C435.809 595.673 442.641 589.848 451.489 586.063C460.386 582.278 470.929 580.386 483.119 580.386C491.918 580.386 499.831 581.172 506.86 582.745C513.938 584.269 520.378 586.333 526.178 588.938V621.011H505.312C503.444 618.259 501.306 615.998 498.897 614.228C496.538 612.409 493.097 611.5 488.575 611.5C481.89 611.5 476.827 613.491 473.387 617.472C469.995 621.454 468.299 626.861 468.299 633.693C468.299 641.705 469.799 647.702 472.797 651.683C475.844 655.615 481.3 657.582 489.165 657.582C491.377 657.582 493.392 657.434 495.211 657.139C497.079 656.844 498.947 656.402 500.814 655.812V647.407H485.995V629.269H529.127V678.226C522.442 681.028 515.29 683.412 507.671 685.378C500.053 687.344 491.598 688.327 482.308 688.327Z" stroke="black" stroke-width="16" mask="url(#path-10-outside-2_1_29)"/>
<path d="M604.037 688.327C585.801 688.327 571.645 683.83 561.568 674.834C551.492 665.79 546.454 652.076 546.454 633.693V613.933L537.606 612.237V583.188H595.189V612.237L586.342 613.933V626.246C586.342 627.278 586.342 628.311 586.342 629.343C586.391 630.375 586.416 631.358 586.416 632.292V633.84C586.416 640.476 587.669 645.736 590.176 649.619C592.732 653.502 597.352 655.443 604.037 655.443C610.771 655.443 615.416 653.502 617.972 649.619C620.577 645.686 621.88 640.378 621.88 633.693V631.997C621.88 631.112 621.855 630.178 621.806 629.195C621.806 628.163 621.806 627.131 621.806 626.099V613.933L612.958 612.237V583.188H664.127V612.237L655.206 613.933C655.157 614.67 655.132 615.408 655.132 616.145C655.132 616.833 655.132 617.521 655.132 618.209V633.693C655.132 650.995 650.881 664.438 642.377 674.023C633.873 683.559 621.093 688.327 604.037 688.327Z" stroke="black" stroke-width="16" mask="url(#path-10-outside-2_1_29)"/>
<path d="M673.196 687V657.582L682.044 655.886V614.081L673.196 612.385V583.188H764.327V620.938H754.226C750.933 618.48 746.902 616.514 742.134 615.039C737.366 613.564 732.132 612.827 726.43 612.827V628.827L746.853 624.477V645.49L726.43 641.066V657.36C732.181 657.36 737.44 656.648 742.208 655.222C747.025 653.797 751.031 651.806 754.226 649.25H764.327V687H673.196Z" stroke="black" stroke-width="16" mask="url(#path-10-outside-2_1_29)"/>
<path d="M24.6631 819V787.001L36.3125 785.158V734.062C32.4294 734.062 29.2344 735.095 26.7275 737.159C24.2207 739.174 22.1071 741.288 20.3867 743.5H8V705.75H111.812V743.5H99.4258C97.7546 741.288 95.641 739.174 93.085 737.159C90.5781 735.095 87.3831 734.062 83.5 734.062V785.158L95.1494 787.001V819H24.6631Z" stroke="black" stroke-width="16" mask="url(#path-10-outside-2_1_29)"/>
<path d="M122.43 819V789.582L131.277 787.886V746.081L122.43 744.385V715.188H213.561V752.938H203.459C200.166 750.48 196.136 748.514 191.368 747.039C186.6 745.564 181.365 744.827 175.663 744.827V760.827L196.086 756.477V777.49L175.663 773.066V789.36C181.414 789.36 186.674 788.648 191.441 787.222C196.258 785.797 200.264 783.806 203.459 781.25H213.561V819H122.43Z" stroke="black" stroke-width="16" mask="url(#path-10-outside-2_1_29)"/>
<path d="M224.03 819V789.582L232.878 787.886V745.933L224.03 744.237V715.188H284.416C290.806 715.188 297.023 715.409 303.069 715.851C309.115 716.293 314.645 717.277 319.659 718.8C324.672 720.324 328.826 722.634 332.119 725.731C335.462 728.828 337.6 733.03 338.534 738.339C339.025 741.091 339.271 744.114 339.271 747.408C339.271 752.962 338.362 757.46 336.543 760.9C334.773 764.341 332.316 767.118 329.17 769.232C326.024 771.346 322.362 773.213 318.184 774.835C320.642 779.702 323.91 784.47 327.99 789.139C332.07 793.76 335.83 798.036 339.271 801.968V819H295.18C292.182 813.396 289.257 807.547 286.406 801.452C283.604 795.308 281.368 788.746 279.697 781.766H277.264V819H224.03ZM277.264 761.785C282.916 761.785 287.291 760.974 290.388 759.352C293.484 757.73 295.033 754.093 295.033 748.44C295.033 742.787 293.46 739.125 290.314 737.454C287.217 735.783 282.867 734.947 277.264 734.947V761.785Z" stroke="black" stroke-width="16" mask="url(#path-10-outside-2_1_29)"/>
<path d="M348.782 819V789.582L357.63 787.886V745.933L348.782 744.237V715.188H401.942L424.282 754.854L446.401 715.188H499.561V744.237L490.713 745.933V787.886L499.561 789.582V819H446.401V768.2L424.282 805.655L401.942 768.2V819H348.782Z" stroke="black" stroke-width="16" mask="url(#path-10-outside-2_1_29)"/>
<path d="M509.662 819V789.582L518.51 787.886V745.933L509.662 744.237V715.188H571.743V744.237L562.896 745.933V787.886L571.743 789.582V819H509.662Z" stroke="black" stroke-width="16" mask="url(#path-10-outside-2_1_29)"/>
<path d="M581.771 819V789.582L590.618 787.886V745.933L581.771 744.237V715.188H635.004L670.468 771.149V746.081L661.621 744.237V715.188H705.933V744.237L697.085 745.933V787.886L705.933 789.582V819H652.699L617.235 764.513V787.886L626.156 789.508V819H581.771Z" stroke="black" stroke-width="16" mask="url(#path-10-outside-2_1_29)"/>
<path d="M714.78 819V784.789L723.333 783.093L743.756 715.188H800.971L821.542 783.093L830.021 784.789V819H790.575L786.889 801.526H757.913L754.226 819H714.78ZM762.41 778.227H782.391L772.364 737.454L762.41 778.227Z" stroke="black" stroke-width="16" mask="url(#path-10-outside-2_1_29)"/>
<path d="M839.237 819V789.582L848.085 787.886V745.933L839.237 744.237V715.188H901.318V744.237L892.397 745.933V790.688C896.722 790.688 900.434 789.704 903.53 787.738C906.676 785.772 909.257 783.609 911.272 781.25H923.585V819H839.237Z" stroke="black" stroke-width="16" mask="url(#path-10-outside-2_1_29)"/>
<defs>
<radialGradient id="paint0_radial_1_29" cx="0" cy="0" r="1" gradientUnits="userSpaceOnUse" gradientTransform="translate(504.5 299.5) rotate(90) scale(48.5)">
<stop stop-color="#FFB618"/>
<stop offset="1" stop-color="#FF9F18" stop-opacity="0.18"/>
</radialGradient>
<radialGradient id="paint1_radial_1_29" cx="0" cy="0" r="1" gradientUnits="userSpaceOnUse" gradientTransform="translate(405.5 302.5) rotate(90) scale(48.5)">
<stop stop-color="#FFB618"/>
<stop offset="1" stop-color="#FF9F18" stop-opacity="0.18"/>
</radialGradient>
</defs>
</svg>
